<svg width="48" height="50" viewBox="0 0 48 50" fill="none" xmlns="http://www.w3.org/2000/svg">
<path fill-rule="evenodd" clip-rule="evenodd" d="M28.869 0.593884C27.9529 0.217347 26.7892 0.217346 24.465 0.217346C22.1392 0.217346 20.9788 0.217347 20.0594 0.593884C19.4552 0.840945 18.9056 1.20526 18.4434 1.66569C17.9795 2.12612 17.6115 2.67359 17.3606 3.27671C17.1278 3.82913 17.0387 4.47569 17.0024 5.41455C16.9842 6.09463 16.7944 6.75885 16.4494 7.34513C16.1044 7.9314 15.6175 8.4204 15.0315 8.76622C14.4339 9.0985 13.7621 9.27438 13.0787 9.27785C12.3953 9.28131 11.7219 9.1122 11.121 8.78604C10.2841 8.34509 9.67833 8.10233 9.07913 8.02306C7.76851 7.85197 6.44304 8.20439 5.38992 9.00404C4.60255 9.60353 4.01988 10.6043 2.85946 12.6034C1.69574 14.6025 1.11633 15.6009 0.984279 16.5794C0.810959 17.8824 1.16751 19.2003 1.97469 20.2432C2.34114 20.7188 2.85943 21.1176 3.65835 21.618C4.84023 22.3538 5.59791 23.6072 5.59791 24.9895C5.59791 26.3718 4.84025 27.6253 3.66168 28.3585C2.85945 28.8614 2.34113 29.2602 1.97303 29.7359C1.57522 30.2516 1.28472 30.8407 1.1147 31.4694C0.944679 32.098 0.901745 32.7539 0.984279 33.3997C1.11633 34.3757 1.69574 35.3765 2.85946 37.3756C4.02318 39.3747 4.60255 40.373 5.38992 40.975C6.43974 41.7751 7.76685 42.1269 9.07913 41.956C9.67833 41.8767 10.2841 41.6339 11.121 41.193C11.7235 40.8665 12.397 40.697 13.0804 40.7005C13.7637 40.704 14.4356 40.8802 15.0331 41.2128C16.2365 41.9064 16.9495 43.1822 17.0024 44.5645C17.0387 45.5058 17.1278 46.1499 17.3606 46.7023C17.8657 47.9162 18.8362 48.8823 20.0594 49.3851C20.9755 49.7617 22.1392 49.7617 24.465 49.7617C26.7892 49.7617 27.9529 49.7617 28.869 49.3851C29.4748 49.1381 30.0245 48.7738 30.4867 48.3133C30.9505 47.8529 31.3186 47.3054 31.5679 46.7023C31.8006 46.1499 31.8897 45.5058 31.9277 44.5645C31.9772 43.1822 32.6919 41.904 33.8986 41.2128C34.4961 40.8805 35.168 40.7047 35.8513 40.7012C36.5347 40.6977 37.2082 40.8668 37.8074 41.193C38.6443 41.6339 39.2517 41.8767 39.8509 41.956C41.1632 42.1294 42.4903 41.7751 43.5401 40.975C44.3275 40.3755 44.9085 39.3747 46.0706 37.3756C47.2343 35.3765 47.8137 34.3782 47.9441 33.3997C48.0283 32.7538 47.9837 32.0978 47.8137 31.4691C47.6437 30.8404 47.3515 30.2515 46.9537 29.7359C46.5872 29.2602 46.0706 28.8614 45.27 28.361C44.0898 27.6253 43.3321 26.3718 43.3321 24.9895C43.3321 23.6072 44.0898 22.3538 45.2684 21.6205C46.0706 21.1176 46.5873 20.7188 46.957 20.2432C47.3548 19.7274 47.6453 19.1383 47.8153 18.5096C47.9854 17.8811 48.0283 17.2251 47.9441 16.5794C47.8137 15.6033 47.2343 14.6025 46.0706 12.6034C44.9069 10.6043 44.3275 9.606 43.5401 9.00404C42.487 8.20439 41.1615 7.85197 39.8509 8.02306C39.2517 8.10233 38.6443 8.34509 37.8074 8.78604C37.2065 9.11254 36.5331 9.28198 35.8497 9.27851C35.1663 9.27504 34.4945 9.09883 33.8953 8.76622C33.311 8.42023 32.824 7.93107 32.479 7.3448C32.1357 6.75853 31.9458 6.0943 31.9277 5.41455C31.8897 4.47321 31.8006 3.82913 31.5679 3.27671C31.3186 2.67359 30.9505 2.12612 30.4867 1.66569C30.0245 1.20526 29.4748 0.840945 28.869 0.593884ZM24.465 32.4212C28.5999 32.4212 31.9491 29.0943 31.9491 24.9895C31.9491 20.8848 28.5966 17.5579 24.465 17.5579C20.3318 17.5579 16.9792 20.8848 16.9792 24.9895C16.9792 29.0943 20.3318 32.4212 24.465 32.4212Z" fill="url(#paint0_linear_0_508)"/>
<defs>
<linearGradient id="paint0_linear_0_508" x1="0.943013" y1="0.217346" x2="50.1133" y2="3.89325" gradientUnits="userSpaceOnUse">
<stop stop-color="#FF7621"/>
<stop offset="1" stop-color="#CE2014"/>
</linearGradient>
</defs>
</svg>
