<svg width="47" height="34" viewBox="0 0 47 34" fill="none" xmlns="http://www.w3.org/2000/svg">
<mask id="mask0_702_277" style="mask-type:luminance" maskUnits="userSpaceOnUse" x="0" y="0" width="47" height="34">
<path d="M46.7234 0.396606H0.504761V33.4262H46.7234V0.396606Z" fill="white"/>
</mask>
<g mask="url(#mask0_702_277)">
<path d="M5.5499 0.444244C5.71266 0.444244 5.87541 0.444283 6.03817 0.442632C6.4822 0.44098 6.92606 0.442593 7.37009 0.444244C7.85027 0.444244 8.3306 0.442632 8.81095 0.442632C9.75018 0.44098 10.6894 0.440918 11.6286 0.440918C12.3912 0.442569 13.1555 0.442632 13.9181 0.442632C14.0271 0.442632 14.136 0.442632 14.2483 0.442632C14.4694 0.442632 14.6906 0.442569 14.9118 0.440918C16.9834 0.440918 19.055 0.442593 21.1266 0.444244C22.9027 0.445896 24.6788 0.445896 26.4549 0.444244C28.5199 0.440941 30.5832 0.44098 32.6482 0.442632C32.8678 0.442632 33.089 0.442632 33.3085 0.442632C33.4174 0.442632 33.5264 0.442632 33.637 0.442632C34.3996 0.442632 35.1622 0.442569 35.9248 0.440918C36.8541 0.440918 37.7835 0.44098 38.7128 0.442632C39.1865 0.444283 39.6603 0.444283 40.134 0.442632C40.5681 0.44098 41.0039 0.442593 41.438 0.444244C41.5948 0.444244 41.75 0.444244 41.9068 0.444244C43.2752 0.435987 44.5116 0.599487 45.5234 1.58377C46.5485 2.61264 46.6855 3.87599 46.6756 5.26653C46.6772 5.40856 46.6772 5.54897 46.6772 5.69099C46.6772 5.98496 46.6772 6.27891 46.6756 6.57288C46.6723 6.94611 46.6739 7.31937 46.6772 7.69426C46.6789 7.98492 46.6772 8.27556 46.6772 8.56787C46.6756 8.70495 46.6772 8.84202 46.6772 8.98074C46.6838 10.2326 46.5188 11.4216 45.6225 12.3629C45.5465 12.4488 45.5465 12.4489 45.469 12.5364C45.0216 12.9856 44.5132 13.1986 43.9338 13.438C42.8824 13.874 42.0801 14.4124 41.6114 15.4809C41.2664 16.4124 41.2003 17.3504 41.6031 18.2835C42.1561 19.3669 42.8064 19.9086 43.9223 20.3727C44.5892 20.6501 45.1388 20.9111 45.6225 21.4594C45.705 21.5469 45.705 21.5468 45.7892 21.6343C46.6178 22.5955 46.6838 23.8358 46.6756 25.0447C46.6772 25.1867 46.6772 25.3271 46.6772 25.4691C46.6772 25.7631 46.6772 26.057 46.6756 26.351C46.6723 26.7259 46.6739 27.0991 46.6772 27.4724C46.6789 27.763 46.6772 28.0537 46.6772 28.346C46.6756 28.4831 46.6772 28.6201 46.6772 28.7589C46.6855 30.08 46.4891 31.2691 45.5234 32.2385C44.4455 33.2872 43.1201 33.3863 41.6774 33.378C41.5156 33.378 41.3522 33.378 41.1888 33.3797C40.7448 33.3813 40.3007 33.3797 39.8583 33.378C39.378 33.378 38.8977 33.3797 38.4173 33.3797C37.4781 33.3813 36.5389 33.3814 35.5996 33.3814C34.837 33.3797 34.0728 33.3797 33.3085 33.3797C33.1996 33.3797 33.0906 33.3797 32.98 33.3797C32.7588 33.3797 32.5376 33.3797 32.3165 33.3814C30.2449 33.3814 28.1733 33.3797 26.1017 33.378C24.3256 33.3764 22.5494 33.3764 20.7733 33.378C18.7083 33.3813 16.6434 33.3813 14.58 33.3797C14.3588 33.3797 14.1393 33.3797 13.9181 33.3797C13.8108 33.3797 13.7019 33.3797 13.5896 33.3797C12.8287 33.3797 12.0661 33.3797 11.3035 33.3814C10.3741 33.3814 9.44481 33.3813 8.51549 33.3797C8.04092 33.378 7.56718 33.378 7.09327 33.3797C6.65881 33.3813 6.22435 33.3797 5.7899 33.378C5.63341 33.378 5.47694 33.378 5.32046 33.378C3.95189 33.3863 2.71571 33.2228 1.705 32.2385C0.679114 31.2097 0.541769 29.9463 0.551342 28.5558C0.551177 28.4137 0.550692 28.2733 0.550196 28.1313C0.549701 27.8373 0.550522 27.5434 0.552337 27.2494C0.554648 26.8762 0.553326 26.5029 0.551015 26.128C0.549529 25.8374 0.550025 25.5467 0.551015 25.2544C0.55118 25.1173 0.551023 24.9803 0.550033 24.8415C0.54244 23.4378 0.791518 22.3032 1.78274 21.276C2.29528 20.7921 2.85799 20.5411 3.50571 20.2736C4.61397 19.7946 5.25492 19.2232 5.70654 18.0985C6.00515 17.2646 5.9766 16.3546 5.62534 15.5388C5.0651 14.4438 4.35399 13.8592 3.21189 13.4133C2.11287 12.9509 1.42471 12.4224 0.901948 11.339C0.589972 10.4984 0.571814 9.71401 0.570988 8.82551C0.570328 8.68349 0.569673 8.54147 0.568847 8.39944C0.567692 8.10217 0.56736 7.80494 0.567525 7.50768C0.567525 7.13114 0.56472 6.75286 0.561254 6.37632C0.559108 6.08236 0.558608 5.78846 0.558773 5.49615C0.558608 5.35743 0.557626 5.21868 0.556141 5.07995C0.543761 3.87107 0.681421 2.72167 1.5084 1.78032C2.66783 0.616033 3.94908 0.434335 5.5499 0.444244ZM22.9143 10.1863C22.7673 10.4604 22.6485 10.7412 22.5329 11.0269C22.4636 11.1904 22.3943 11.3522 22.325 11.5157C22.2193 11.7684 22.112 12.0227 22.0064 12.277C21.904 12.5248 21.7984 12.7709 21.6944 13.017C21.6482 13.131 21.6482 13.1309 21.6003 13.2465C21.4088 13.6974 21.2273 14.0475 20.813 14.3398C20.5158 14.4058 20.2286 14.4025 19.9249 14.3959C19.7978 14.3976 19.7978 14.3976 19.6674 14.3976C19.3967 14.3993 19.126 14.3976 18.8553 14.3959C18.5846 14.3943 18.3138 14.3927 18.0431 14.3943C17.8748 14.396 17.7064 14.3943 17.538 14.391C17.1749 14.3926 16.957 14.4058 16.6599 14.6205C16.4552 14.9161 16.4486 15.078 16.5113 15.4281C16.7011 15.6775 16.7011 15.6775 16.9735 15.8906C17.1237 16.0177 17.1237 16.0177 17.2756 16.1482C17.7427 16.5247 18.2165 16.893 18.6935 17.258C19.6657 18.0045 19.6657 18.0044 19.8126 18.2951C19.8044 18.9689 19.6443 19.5899 19.4363 20.2257C19.3818 20.3991 19.3274 20.5741 19.2712 20.7491C19.1854 21.0183 19.0996 21.2892 19.0121 21.5601C18.9262 21.8226 18.8437 22.0869 18.7612 22.3511C18.7348 22.432 18.7084 22.513 18.6803 22.5956C18.54 23.0448 18.4773 23.3668 18.6126 23.8342C18.7117 24.0307 18.7117 24.0306 18.9114 24.1297C19.3769 24.1974 19.641 24.143 20.0107 23.8722C20.156 23.7566 20.3012 23.6376 20.4432 23.5187C20.6017 23.3915 20.7618 23.266 20.9202 23.1389C21.0011 23.0745 21.082 23.01 21.1662 22.9423C21.564 22.6252 21.9668 22.3181 22.3761 22.0159C22.4488 21.9597 22.5197 21.9052 22.594 21.8474C22.9869 21.5584 23.3088 21.3635 23.8106 21.4031C24.2397 21.5237 24.5649 21.8012 24.9083 22.072C24.9891 22.1331 25.0717 22.1958 25.1558 22.2586C25.5735 22.574 25.9828 22.8978 26.3922 23.2231C26.4681 23.2826 26.5424 23.3403 26.62 23.4014C26.7636 23.5137 26.9056 23.6277 27.0459 23.7433C27.3826 24.0092 27.5592 24.1232 27.9983 24.1777C28.3268 24.1562 28.3268 24.1562 28.5661 23.9333C28.8781 23.3139 28.5496 22.5707 28.3433 21.9481C28.2888 21.778 28.2343 21.608 28.1799 21.4379C28.094 21.1737 28.0082 20.9093 27.9224 20.6451C27.8398 20.3875 27.7573 20.1299 27.6748 19.8706C27.6484 19.793 27.622 19.7153 27.5955 19.6344C27.4503 19.177 27.3677 18.7806 27.4156 18.2951C27.6352 18.0292 27.6352 18.0292 27.9158 17.8013C27.9934 17.7352 28.0693 17.6708 28.1485 17.6031C28.2723 17.5057 28.2723 17.5057 28.3978 17.405C28.4919 17.3306 28.5859 17.2547 28.6833 17.177C28.7609 17.1143 28.7609 17.1143 28.8418 17.0498C29.1125 16.8335 29.3832 16.6172 29.6556 16.3992C29.7992 16.2852 29.9428 16.1696 30.0864 16.0557C30.1524 16.0028 30.2184 15.95 30.2861 15.8955C30.3439 15.8476 30.4033 15.7997 30.4644 15.7518C30.7632 15.5106 30.7632 15.5107 30.854 15.1441C30.8408 14.8336 30.8408 14.8335 30.6674 14.6205C30.3125 14.3645 29.9824 14.3827 29.5598 14.386C29.4773 14.3844 29.3948 14.3827 29.3089 14.3827C29.0448 14.3778 28.7807 14.3778 28.5166 14.3778C28.2509 14.3761 27.9867 14.3728 27.7226 14.3695C27.5592 14.3679 27.3942 14.3679 27.2291 14.3679C26.8379 14.363 26.5457 14.3563 26.2156 14.1416C26.1017 13.9682 26.1017 13.9682 26.0126 13.7552C25.9779 13.6759 25.9432 13.5966 25.9086 13.514C25.8722 13.4282 25.8359 13.3423 25.7996 13.2531C25.7616 13.1655 25.7237 13.0764 25.6841 12.9856C25.5619 12.7015 25.4414 12.4175 25.3209 12.1334C25.1625 11.7602 25.004 11.3886 24.8422 11.0154C24.8076 10.9311 24.7712 10.8453 24.7349 10.7561C24.5253 10.2706 24.3305 9.9303 23.9146 9.5934C23.3929 9.45137 23.185 9.79654 22.9143 10.1863Z" fill="white"/>
</g>
</svg>
