<svg width="47" height="34" viewBox="0 0 47 34" fill="none" xmlns="http://www.w3.org/2000/svg">
<mask id="mask0_702_298" style="mask-type:luminance" maskUnits="userSpaceOnUse" x="0" y="0" width="47" height="34">
<path d="M46.1505 0.396606H0.757202V33.4262H46.1505V0.396606Z" fill="white"/>
</mask>
<g mask="url(#mask0_702_298)">
<path d="M5.80487 0.462334C5.90391 0.462334 6.00291 0.460721 6.10525 0.460721C6.43539 0.460721 6.76552 0.462396 7.094 0.464048C7.3317 0.464048 7.56939 0.464048 7.80544 0.464048C8.44755 0.464048 9.08969 0.465722 9.7318 0.467374C10.4036 0.469025 11.0754 0.470599 11.7472 0.470599C12.8746 0.470599 14.0021 0.472236 15.1295 0.475539C16.2882 0.478841 17.4487 0.48054 18.6091 0.482191C18.7164 0.482191 18.7163 0.482191 18.8269 0.482191C19.1868 0.482191 19.545 0.483804 19.9049 0.483804C22.8827 0.487107 25.8588 0.492116 28.8366 0.498722C28.8366 0.589553 28.8366 0.589529 28.8382 0.68036C28.8448 1.30627 28.8531 1.93222 28.863 2.55813C28.8663 2.79264 28.8696 3.02542 28.8713 3.25827C28.8762 3.59518 28.8811 3.93212 28.8861 4.26737C28.8877 4.4226 28.8878 4.42261 28.8878 4.58115C28.9043 5.33092 28.9538 6.07743 29.5117 6.62241C30.0069 6.92794 30.4196 6.94446 30.9957 6.88005C31.4562 6.6538 31.7071 6.41758 31.9217 5.95352C32.0042 5.60836 32.0389 5.28306 32.0455 4.928C32.0488 4.82891 32.0505 4.72981 32.0521 4.62742C32.0538 4.52172 32.0554 4.41769 32.0571 4.30869C32.0604 4.1452 32.0604 4.14518 32.0637 3.97838C32.0703 3.63157 32.0769 3.28479 32.0835 2.93633C32.0868 2.70182 32.0917 2.46559 32.0967 2.22943C32.1066 1.65306 32.1181 1.07674 32.128 0.498722C33.5278 0.488813 34.9275 0.482207 36.329 0.477252C36.9793 0.475601 37.6297 0.472328 38.2784 0.467374C38.9073 0.464071 39.5362 0.460721 40.1635 0.460721C40.4028 0.45907 40.6422 0.457434 40.8815 0.455782C42.8326 0.437616 44.1911 0.591152 45.6783 1.97179C46.7678 3.12287 46.9873 4.39456 46.984 5.93044C46.984 6.07411 46.984 6.21944 46.9857 6.36477C46.9857 6.66534 46.9857 6.96756 46.9857 7.26813C46.984 7.65292 46.9857 8.03767 46.989 8.42247C46.9906 8.72139 46.9906 9.01864 46.9906 9.31756C46.9906 9.45958 46.9906 9.6016 46.9923 9.74363C47.0022 11.1127 47.0022 11.1128 46.5268 11.6148C46.0316 12.0376 45.5842 12.1086 44.9586 12.1812C43.4747 12.3877 42.42 12.8964 41.4428 14.0673C40.5993 15.2365 40.4392 16.4916 40.5613 17.8937C40.8023 19.1802 41.5748 20.2157 42.6197 20.9803C43.5523 21.5418 44.4635 21.7252 45.538 21.8292C46.0696 21.9399 46.3766 22.1594 46.748 22.5508C47.093 23.0909 46.9972 23.7779 46.9939 24.3939C46.9939 24.5376 46.9939 24.6813 46.9956 24.825C46.9956 25.1272 46.9939 25.4278 46.9923 25.73C46.9906 26.1115 46.9923 26.4946 46.9939 26.8777C46.9956 27.175 46.9956 27.4723 46.9939 27.7696C46.9939 27.9777 46.9956 28.1857 46.9956 28.3954C46.9807 29.928 46.5053 31.0527 45.4671 32.1741C44.4536 33.1336 43.2816 33.4853 41.9132 33.4688C41.7531 33.4688 41.7531 33.4688 41.5896 33.4688C41.2414 33.4688 40.8931 33.4672 40.5448 33.4639C40.3021 33.4639 40.0595 33.4639 39.8168 33.4639C39.1797 33.4622 38.5425 33.4589 37.9054 33.4556C37.255 33.4523 36.6046 33.4506 35.9526 33.4489C34.6783 33.4456 33.4024 33.4407 32.128 33.4341C32.1264 33.345 32.1264 33.345 32.1264 33.2525C32.1198 32.6266 32.1099 32.0006 32.1 31.3747C32.0967 31.1419 32.095 30.9073 32.0917 30.6745C32.0884 30.3376 32.0835 30.0024 32.0769 29.6655C32.0769 29.5103 32.0768 29.5102 32.0752 29.3517C32.0603 28.6036 32.0108 27.8554 31.4529 27.3104C30.9561 27.0049 30.5451 26.9884 29.9673 27.0528C29.5084 27.2791 29.2575 27.5153 29.0413 27.9793C28.9588 28.3245 28.9241 28.6514 28.9175 29.0065C28.9158 29.1056 28.9142 29.203 28.9125 29.3054C28.9109 29.4111 28.9092 29.5168 28.9059 29.6242C28.9026 29.7877 28.9026 29.7877 28.901 29.9545C28.8927 30.3029 28.8878 30.6497 28.8812 30.9965C28.8762 31.2327 28.8729 31.4672 28.868 31.7033C28.8564 32.2797 28.8465 32.8578 28.8366 33.4341C25.7911 33.444 22.7457 33.4506 19.7002 33.4556C19.3403 33.4556 18.9805 33.4556 18.6206 33.4572C18.5496 33.4572 18.477 33.4572 18.4044 33.4572C17.2456 33.4589 16.0868 33.4622 14.9281 33.4655C13.7379 33.4704 12.5495 33.4721 11.3593 33.4737C10.6908 33.4737 10.024 33.4754 9.35546 33.4771C8.72655 33.4804 8.09764 33.482 7.46874 33.4804C7.23764 33.4804 7.00819 33.482 6.7771 33.4836C4.89699 33.4952 3.54511 33.2854 2.11893 31.961C1.03114 30.8099 0.809938 29.5383 0.81489 28.004C0.81489 27.8587 0.813228 27.7134 0.813228 27.5697C0.811577 27.2675 0.813228 26.9669 0.813228 26.6647C0.814879 26.2799 0.813255 25.8951 0.809954 25.5103C0.808303 25.2114 0.808291 24.9141 0.808291 24.6152C0.808291 24.4732 0.80828 24.3312 0.806629 24.1891C0.796725 22.82 0.796735 22.8201 1.27048 22.318C1.76733 21.8952 2.21464 21.8242 2.84024 21.7532C4.32419 21.5468 5.37732 21.0365 6.35617 19.8656C7.19801 18.6963 7.35976 17.4412 7.23596 16.0408C6.99661 14.7526 6.22409 13.7172 5.17922 12.9525C4.31757 12.4406 3.49224 12.2027 2.49689 12.1251C1.85808 12.0607 1.48837 11.8443 1.05094 11.3819C0.705955 10.8435 0.800014 10.1549 0.804966 9.53891C0.804966 9.39523 0.803304 9.25158 0.803304 9.1079C0.803304 8.80733 0.803328 8.50511 0.806629 8.20454C0.80828 7.8214 0.806617 7.43825 0.804966 7.05675C0.803316 6.75949 0.803316 6.46216 0.804966 6.16489C0.804966 5.95515 0.803343 5.74712 0.801692 5.53904C0.818199 4.00481 1.29359 2.88012 2.33186 1.76041C3.31401 0.82898 4.47278 0.449122 5.80487 0.462334ZM29.3499 10.8947C28.7012 11.7188 28.7838 12.6734 28.8366 13.6725C28.9208 14.1944 29.0578 14.5577 29.4606 14.9078C29.9772 15.2612 30.3767 15.2844 30.9957 15.2167C31.4975 14.9756 31.7583 14.6734 32.0257 14.1878C32.2584 13.3158 32.2634 12.1218 31.9283 11.2828C31.7038 10.9079 31.3852 10.6768 30.9957 10.4819C30.3354 10.4092 29.8633 10.4307 29.3499 10.8947ZM29.3499 19.1273C28.7012 19.9531 28.7838 20.9061 28.8366 21.9068C28.9208 22.4287 29.0578 22.792 29.4606 23.1421C29.9772 23.4955 30.3767 23.5187 30.9957 23.451C31.4975 23.2099 31.7583 22.9059 32.0257 22.422C32.2584 21.55 32.2634 20.3561 31.9283 19.5155C31.7038 19.1406 31.3852 18.9111 30.9957 18.7162C30.3354 18.6435 29.8633 18.6649 29.3499 19.1273Z" fill="white"/>
</g>
</svg>
