<svg width="34" height="40" viewBox="0 0 34 40" fill="none" xmlns="http://www.w3.org/2000/svg">
<mask id="mask0_702_282" style="mask-type:luminance" maskUnits="userSpaceOnUse" x="0" y="0" width="34" height="40">
<path d="M33.47 0.0936279H0.456665V39.7291H33.47V0.0936279Z" fill="white"/>
</mask>
<g mask="url(#mask0_702_282)">
<path d="M6.44015 0.14956C6.53424 0.14956 6.62667 0.14956 6.72406 0.14956C6.98157 0.147909 7.23908 0.147948 7.49658 0.147948C7.77554 0.147948 8.0545 0.147885 8.33181 0.146234C8.87818 0.144582 9.42292 0.144621 9.96764 0.144621C10.4117 0.144621 10.8557 0.144621 11.2997 0.144621C12.5592 0.14297 13.8186 0.141295 15.0765 0.141295C15.1458 0.141295 15.2135 0.141295 15.2828 0.141295C15.3851 0.141295 15.3851 0.141295 15.4891 0.141295C16.5885 0.141295 17.6878 0.141271 18.7871 0.137969C19.9178 0.136317 21.0486 0.134743 22.1793 0.134743C22.8148 0.134743 23.4486 0.134681 24.0825 0.133029C24.6223 0.131378 25.162 0.131378 25.7034 0.133029C25.9774 0.133029 26.2531 0.133068 26.5288 0.131417C28.6499 0.121508 28.6499 0.121443 29.5941 0.478162C29.6535 0.501283 29.7113 0.522817 29.7707 0.544286C30.4029 0.80522 30.9493 1.18177 31.4544 1.63593C31.5072 1.68052 31.56 1.72674 31.6161 1.77463C32.8079 2.86626 33.2982 4.38562 33.3922 5.95453C33.4021 6.34097 33.4021 6.72908 33.4021 7.11552C33.4021 7.23113 33.4021 7.3467 33.4021 7.46066C33.4038 7.77444 33.4038 8.08823 33.4038 8.40201C33.4038 8.74056 33.4038 9.08071 33.4038 9.41926C33.4055 10.0832 33.4054 10.7471 33.4054 11.411C33.4054 11.9511 33.4054 12.4911 33.4054 13.0295C33.4054 14.562 33.4071 16.0946 33.4071 17.6288C33.4071 17.751 33.4071 17.751 33.4071 17.8781C33.4071 17.9607 33.4071 18.0434 33.4071 18.1292C33.4071 19.4669 33.4071 20.8046 33.4087 22.1439C33.4087 23.5196 33.4104 24.8969 33.4104 26.2726C33.4104 27.0439 33.4104 27.8168 33.4104 28.5881C33.4121 29.2453 33.4121 29.9026 33.4104 30.5599C33.4104 30.8951 33.4104 31.2304 33.412 31.564C33.412 31.8729 33.412 32.18 33.412 32.4871C33.412 32.5978 33.412 32.7068 33.412 32.8175C33.4137 33.4037 33.3906 33.98 33.3229 34.5614C33.318 34.6142 33.3114 34.6671 33.3064 34.7216C33.1133 36.2625 32.2516 37.5439 31.0731 38.5266C30.0051 39.3374 28.81 39.676 27.4862 39.6727C27.3921 39.6727 27.298 39.6727 27.2022 39.6727C26.9447 39.6744 26.6872 39.6744 26.4297 39.6744C26.1508 39.6744 25.8718 39.6744 25.5928 39.6761C25.0481 39.6777 24.5034 39.6777 23.957 39.6777C23.513 39.6777 23.0706 39.6777 22.6266 39.6777C21.3671 39.6793 20.1077 39.681 18.8482 39.681C18.7805 39.681 18.7129 39.681 18.6435 39.681C18.5412 39.681 18.5412 39.681 18.4372 39.681C17.3379 39.681 16.2385 39.681 15.1375 39.6843C14.0068 39.686 12.8761 39.6876 11.7454 39.6876C11.1115 39.6876 10.4777 39.6876 9.84382 39.6893C9.3024 39.6909 8.76264 39.6909 8.22288 39.6893C7.94722 39.6893 7.6732 39.6892 7.39754 39.6909C5.27479 39.7008 5.27478 39.7009 4.3306 39.3441C4.27283 39.321 4.21505 39.2995 4.15563 39.278C3.52177 39.0171 2.97706 38.6405 2.4703 38.1864C2.41748 38.1418 2.36466 38.0956 2.31019 38.0477C1.11841 36.956 0.628151 35.4367 0.534063 33.8678C0.522508 33.4813 0.522514 33.0932 0.524164 32.7068C0.522514 32.5912 0.522527 32.4756 0.522527 32.3616C0.522527 32.0479 0.522527 31.7341 0.522527 31.4203C0.522527 31.0817 0.522516 30.7416 0.520865 30.403C0.520865 29.7391 0.520865 29.0752 0.520865 28.4113C0.520865 27.8712 0.520865 27.3312 0.520865 26.7928C0.519214 25.2603 0.519228 23.7261 0.519228 22.1935C0.519228 22.1126 0.519228 22.03 0.519228 21.9441C0.519228 21.8616 0.519228 21.7789 0.519228 21.6931C0.519228 20.3554 0.519216 19.0177 0.517565 17.6784C0.515915 16.3027 0.515903 14.9254 0.515903 13.5497C0.515903 12.7784 0.515916 12.0055 0.514266 11.2342C0.514266 10.5769 0.514266 9.91971 0.514266 9.26242C0.514266 8.92717 0.514266 8.59187 0.514266 8.25827C0.514266 7.94945 0.514266 7.64234 0.514266 7.33516C0.514266 7.22451 0.514266 7.11549 0.514266 7.00485C0.510964 6.41857 0.535714 5.84226 0.601741 5.26094C0.608344 5.20809 0.613298 5.15517 0.619901 5.10067C0.813029 3.55984 1.67302 2.27837 2.85325 1.29574C3.91958 0.484861 5.11632 0.146257 6.44015 0.14956ZM11.2155 11.5612C11.1825 11.6075 11.1479 11.6521 11.1115 11.6983C11.0752 11.7446 11.0406 11.7892 11.0026 11.8354C10.793 12.164 10.7979 12.5191 10.8408 12.894C10.9663 13.2936 11.2221 13.5282 11.577 13.7396C11.9649 13.8998 12.371 13.8717 12.7853 13.8684C12.9372 13.8684 12.9372 13.8684 13.0907 13.87C13.3647 13.8717 13.6387 13.87 13.9127 13.8684C14.2 13.8667 14.4872 13.8684 14.776 13.8684C15.258 13.8684 15.7417 13.8667 16.2237 13.8651C16.7816 13.8634 17.3395 13.8635 17.8958 13.8635C18.4339 13.8651 18.972 13.8651 19.5085 13.8635C19.7379 13.8635 19.9657 13.8635 20.1935 13.8635C20.5121 13.8651 20.8307 13.8618 21.1509 13.8601C21.245 13.8601 21.3391 13.8617 21.4348 13.8617C21.9515 13.8568 22.2816 13.8221 22.6976 13.5117C23.0376 13.145 23.1086 12.8594 23.102 12.3755C23.0657 11.9973 22.9039 11.7875 22.6398 11.5249C22.0918 11.1484 21.5421 11.1748 20.8983 11.1765C20.7564 11.1765 20.7564 11.1765 20.6128 11.1749C20.3553 11.1749 20.0978 11.1749 19.8419 11.1749C19.6257 11.1749 19.4111 11.1732 19.1949 11.1732C18.6865 11.1732 18.1797 11.1732 17.6713 11.1732C17.148 11.1732 16.6248 11.1732 16.1015 11.1715C15.6509 11.1699 15.2019 11.1698 14.7513 11.1698C14.4822 11.1698 14.2148 11.1699 13.9457 11.1682C13.647 11.1666 13.3466 11.1682 13.0478 11.1682C12.9157 11.1682 12.9157 11.1683 12.7804 11.1666C12.2241 11.1699 11.6678 11.2029 11.2155 11.5612ZM7.63853 19.1019C7.58241 19.1696 7.58242 19.1697 7.523 19.239C7.31337 19.5379 7.31832 19.8682 7.35299 20.22C7.49659 20.6395 7.77061 20.8954 8.1288 21.1448C8.43253 21.2456 8.72138 21.234 9.03831 21.2323C9.10929 21.2323 9.17861 21.234 9.25124 21.234C9.48729 21.234 9.72334 21.234 9.95938 21.234C10.1277 21.2357 10.2961 21.2356 10.4661 21.2356C10.925 21.2373 11.3839 21.2372 11.8428 21.2372C12.13 21.2372 12.4172 21.2373 12.7028 21.239C13.6008 21.239 14.4971 21.2406 15.3934 21.2406C15.4957 21.2406 15.5981 21.2406 15.7037 21.2406C15.7549 21.2406 15.8061 21.2406 15.8589 21.2406C16.6363 21.2406 17.4138 21.2423 18.1929 21.2439C19.0958 21.2456 19.9987 21.2472 20.9016 21.2472C21.3803 21.2472 21.859 21.2472 22.3361 21.2488C22.7867 21.2505 23.2357 21.2505 23.6863 21.2488C23.8514 21.2488 24.0165 21.2505 24.1815 21.2505C24.406 21.2521 24.6321 21.2505 24.8566 21.2505C24.9557 21.2505 24.9557 21.2505 25.0564 21.2522C25.5037 21.2489 25.8338 21.1712 26.1739 20.8574C26.2118 20.8129 26.2482 20.7682 26.2861 20.7204C26.3241 20.6758 26.3621 20.6295 26.4017 20.5833C26.6113 20.2844 26.608 19.9541 26.5717 19.6023C26.4297 19.1828 26.1557 18.9269 25.7975 18.6775C25.4938 18.5767 25.2033 18.5883 24.8864 18.59C24.817 18.59 24.746 18.5883 24.6751 18.5883C24.439 18.5883 24.203 18.5883 23.9669 18.5883C23.7986 18.5866 23.6286 18.5867 23.4602 18.5867C23.0013 18.585 22.5424 18.585 22.0819 18.585C21.7963 18.585 21.5091 18.585 21.2219 18.5833C20.3256 18.5833 19.4293 18.5817 18.5329 18.5817C18.4306 18.5817 18.3283 18.5817 18.2226 18.5817C18.1714 18.5817 18.1203 18.5817 18.0675 18.5817C17.29 18.5817 16.5109 18.58 15.7334 18.5784C14.8305 18.5767 13.9276 18.5751 13.023 18.5751C12.546 18.5751 12.0673 18.5751 11.5886 18.5735C11.1396 18.5718 10.689 18.5718 10.24 18.5735C10.0749 18.5735 9.90985 18.5718 9.74479 18.5718C9.51865 18.5702 9.29415 18.5718 9.06801 18.5718C9.00363 18.5718 8.93761 18.5701 8.86994 18.5701C8.35823 18.5751 7.97362 18.6924 7.63853 19.1019ZM7.47018 26.6392C7.31172 26.9596 7.30182 27.2718 7.35299 27.6219C7.49164 28.0216 7.70456 28.2313 8.0512 28.4707C8.47377 28.621 8.84682 28.6475 9.2892 28.6442C9.35688 28.6459 9.42622 28.6458 9.4972 28.6458C9.72499 28.6458 9.95278 28.6458 10.1806 28.6458C10.344 28.6458 10.5074 28.6474 10.6725 28.6474C11.1165 28.6474 11.5605 28.6474 12.0062 28.6474C12.376 28.6474 12.7474 28.6491 13.1188 28.6491C13.9953 28.6491 14.8718 28.6491 15.7483 28.6491C16.6512 28.6491 17.5541 28.6491 18.457 28.6508C19.2328 28.6524 20.0103 28.6525 20.7861 28.6525C21.2483 28.6525 21.7121 28.6524 22.176 28.6541C22.6117 28.6557 23.0475 28.6541 23.4816 28.6541C23.6418 28.6541 23.8019 28.6541 23.962 28.6541C24.1799 28.6557 24.3978 28.6541 24.6173 28.6541C24.7114 28.6541 24.7114 28.654 24.8071 28.6557C25.299 28.6507 25.8025 28.5732 26.197 28.2611C26.2317 28.2148 26.2663 28.1702 26.301 28.124C26.3373 28.0777 26.3736 28.0331 26.4099 27.9869C26.6196 27.6583 26.6245 27.3015 26.5717 26.9283C26.4116 26.5171 26.192 26.2842 25.8025 26.0695C25.5152 25.9506 25.2297 25.9605 24.9227 25.9638C24.8154 25.9621 24.8154 25.9622 24.7081 25.9622C24.4704 25.9605 24.2343 25.9605 23.9966 25.9622C23.8266 25.9605 23.6566 25.9606 23.4866 25.9606C23.026 25.9589 22.5639 25.9588 22.1033 25.9588C21.7171 25.9588 21.3325 25.9588 20.9462 25.9588C19.9855 25.9572 19.0248 25.9572 18.0625 25.9588C17.2289 25.9605 16.3953 25.9589 15.5617 25.9572C14.7034 25.9539 13.8467 25.9539 12.99 25.9539C12.5097 25.9539 12.0277 25.9539 11.5473 25.9523C11.095 25.9506 10.6428 25.9522 10.1905 25.9539C10.0254 25.9539 9.8587 25.9539 9.69363 25.9523C9.46584 25.9523 9.23969 25.9522 9.01355 25.9539C8.94753 25.9539 8.88313 25.9523 8.81546 25.9523C8.25093 25.9605 7.79536 26.1686 7.47018 26.6392Z" fill="white"/>
</g>
</svg>
