<svg width="40" height="40" viewBox="0 0 40 40" fill="none" xmlns="http://www.w3.org/2000/svg">
<mask id="mask0_702_287" style="mask-type:luminance" maskUnits="userSpaceOnUse" x="0" y="0" width="40" height="40">
<path d="M39.8191 0.0936279H0.203125V39.7291H39.8191V0.0936279Z" fill="white"/>
</mask>
<g mask="url(#mask0_702_287)">
<path d="M19.5207 0.151121C19.9284 0.151121 20.3361 0.15116 20.7438 0.149508C22.5348 0.146205 24.3142 0.164402 26.0986 0.324595C26.1663 0.331201 26.234 0.336133 26.3033 0.342739C26.6714 0.37742 27.0378 0.418665 27.4043 0.464906C27.4555 0.471512 27.5083 0.478157 27.5611 0.484763C30.3821 0.83818 33.2773 1.55161 35.5024 3.40952C35.5602 3.45577 35.6163 3.50033 35.6758 3.54822C36.1181 3.91155 36.4648 4.34596 36.8131 4.79681C36.8577 4.85461 36.9022 4.91234 36.9484 4.9718C38.9986 7.72976 39.4409 11.4903 39.6638 14.8213C39.6704 14.9171 39.677 15.0128 39.6836 15.1103C39.7414 16.0335 39.7529 16.955 39.7546 17.8798C39.7546 18.0384 39.7546 18.1968 39.7546 18.3554C39.7546 18.6857 39.7562 19.016 39.7546 19.3463C39.7546 19.6799 39.7562 20.0118 39.7562 20.3454C39.7694 24.1604 39.6984 28.0462 38.5083 31.7092C38.4902 31.7637 38.472 31.8183 38.4555 31.8744C38.0263 33.1758 37.3858 34.3632 36.5044 35.4102C36.4615 35.4647 36.4186 35.5175 36.374 35.572C34.0928 38.3746 29.9975 39.0798 26.6235 39.4464C26.1151 39.4976 25.6067 39.5405 25.0966 39.5752C25.0026 39.5802 24.9068 39.5869 24.8078 39.5935C23.885 39.6529 22.964 39.6644 22.0396 39.6644C21.8812 39.6644 21.7227 39.6644 21.5659 39.666C21.2357 39.666 20.9056 39.666 20.5755 39.666C20.242 39.666 19.9086 39.6661 19.5752 39.6677C17.6851 39.6727 15.805 39.6677 13.9216 39.4976C13.8556 39.491 13.7896 39.4861 13.7219 39.4795C13.3736 39.4481 13.0253 39.4085 12.6787 39.3622C12.578 39.349 12.4773 39.3358 12.3733 39.3226C9.37736 38.923 6.36819 38.1714 4.13318 36.0278C4.06551 35.9634 3.99948 35.9008 3.93015 35.8347C3.83936 35.7389 3.83937 35.7389 3.74694 35.6415C3.70237 35.5952 3.6578 35.5506 3.61158 35.5027C1.06625 32.781 0.594163 28.545 0.356467 25.0009C0.349864 24.9051 0.343247 24.8094 0.336644 24.7119C0.278871 23.7887 0.267318 22.8672 0.265667 21.9424C0.265667 21.7838 0.265667 21.6254 0.265667 21.4668C0.265667 21.1365 0.265667 20.8062 0.265667 20.4759C0.265667 20.1423 0.26403 19.8104 0.26403 19.4768C0.229366 8.31112 0.229368 8.3111 3.51584 4.41196C3.56206 4.35416 3.60828 4.29639 3.6545 4.23859C4.01765 3.79599 4.45175 3.44914 4.90404 3.10068C4.98987 3.03297 4.98989 3.03295 5.07737 2.96359C7.25956 1.34019 10.0393 0.801823 12.6787 0.459967C12.7678 0.448407 12.8569 0.436891 12.9477 0.42368C13.2729 0.385696 13.5964 0.354321 13.9216 0.324595C13.9959 0.317989 14.0718 0.311344 14.1494 0.304738C15.9387 0.15115 17.7264 0.146167 19.5207 0.151121ZM18.6425 10.8132C18.3768 11.231 18.3685 11.6471 18.3718 12.1243C18.3718 12.1937 18.3702 12.2631 18.3702 12.3341C18.3702 12.5653 18.3702 12.7965 18.3702 13.0294C18.3702 13.1946 18.3702 13.3614 18.3685 13.5282C18.3685 13.979 18.3685 14.4298 18.3685 14.8807C18.3685 15.2572 18.3685 15.6337 18.3669 16.0119C18.3669 16.9004 18.3669 17.7889 18.3669 18.6774C18.3685 19.594 18.3669 20.5122 18.3652 21.4288C18.3636 22.2149 18.3636 23.0027 18.3636 23.7904C18.3636 24.2611 18.3636 24.7301 18.3619 25.2008C18.3619 25.6434 18.3619 26.0843 18.3619 26.5269C18.3636 26.6887 18.3619 26.8506 18.3619 27.0141C18.3619 27.2354 18.3619 27.4567 18.3636 27.678C18.3619 27.7424 18.3619 27.8068 18.3603 27.8712C18.3652 28.3749 18.4511 28.8109 18.7894 29.2023C18.8489 29.2518 18.9083 29.3014 18.9694 29.3526C19.0288 29.4038 19.0882 29.4533 19.151 29.5062C19.5389 29.7886 20.0126 29.7456 20.4731 29.7043C20.9023 29.5739 21.2374 29.2288 21.4751 28.8555C21.6385 28.4625 21.65 28.1173 21.6484 27.6979C21.6484 27.6285 21.6501 27.5591 21.6501 27.4881C21.6501 27.2569 21.6501 27.0257 21.6501 26.7928C21.6501 26.6276 21.6501 26.4608 21.6517 26.294C21.6517 25.8432 21.6517 25.3924 21.6517 24.9415C21.6517 24.565 21.6517 24.1885 21.6534 23.8103C21.6534 22.9218 21.6534 22.0333 21.6534 21.1448C21.6534 20.2282 21.6534 19.3099 21.655 18.3934C21.6567 17.6073 21.6567 16.8195 21.6567 16.0318C21.6567 15.5611 21.6567 15.0921 21.6583 14.6214C21.6583 14.1788 21.6583 13.7379 21.6583 13.2953C21.6583 13.1335 21.6583 12.9715 21.6583 12.8081C21.66 12.5868 21.6583 12.3655 21.6583 12.1442C21.6583 12.0484 21.6583 12.0484 21.66 11.951C21.655 11.4473 21.5692 11.0113 21.2308 10.6199C21.1714 10.5704 21.1119 10.5208 21.0509 10.4696C20.9914 10.4184 20.932 10.3689 20.8693 10.316C20.0902 9.74956 19.1922 10.179 18.6425 10.8132ZM26.8876 17.3761C26.6796 17.6932 26.6186 17.9722 26.6186 18.3504C26.6186 18.438 26.6169 18.5271 26.6169 18.618C26.6169 18.7154 26.6169 18.8112 26.6169 18.912C26.6169 19.0144 26.6169 19.1183 26.6169 19.2207C26.6153 19.5015 26.6153 19.7806 26.6153 20.0614C26.6153 20.2942 26.6153 20.5287 26.6153 20.7632C26.6136 21.3148 26.6136 21.8664 26.6136 22.4197C26.6153 22.9878 26.6136 23.5576 26.612 24.1257C26.6103 24.6145 26.6103 25.1033 26.6103 25.5938C26.6103 25.8845 26.6103 26.1768 26.6087 26.4691C26.6087 26.7433 26.6087 27.0174 26.6103 27.2932C26.6103 27.4401 26.6087 27.5888 26.6087 27.7375C26.612 28.4047 26.6879 28.905 27.1781 29.3955C27.6172 29.6746 28.0431 29.8381 28.5647 29.7291C29.1061 29.5739 29.4396 29.2568 29.7367 28.7878C29.9348 28.2692 29.8869 27.6813 29.8869 27.1363C29.8869 27.0405 29.8869 26.9464 29.8869 26.8489C29.8885 26.5913 29.8885 26.3336 29.8885 26.076C29.8885 25.9142 29.8885 25.7524 29.8885 25.5906C29.8902 25.0274 29.8902 24.4626 29.8902 23.8978C29.8902 23.3742 29.8902 22.8491 29.8918 22.3239C29.8935 21.8731 29.8935 21.4222 29.8935 20.9697C29.8935 20.7005 29.8935 20.4313 29.8935 20.1621C29.8951 19.8615 29.8951 19.561 29.8951 19.2604C29.8951 19.1729 29.8951 19.0837 29.8951 18.9928C29.8935 18.2893 29.8555 17.6717 29.395 17.1135C29.0632 16.7866 28.7199 16.656 28.2577 16.6346C27.6519 16.6626 27.2673 16.9187 26.8876 17.3761ZM10.6847 20.3736C10.168 20.9466 10.1333 21.4982 10.1333 22.2529C10.1333 22.314 10.1333 22.3767 10.1333 22.4411C10.1317 22.6443 10.1317 22.849 10.1317 23.0522C10.1317 23.1959 10.1317 23.3379 10.1317 23.4816C10.1301 23.7805 10.13 24.0795 10.13 24.3784C10.13 24.7599 10.1301 25.1413 10.1284 25.5228C10.1268 25.8168 10.1267 26.1124 10.1267 26.4063C10.1267 26.5467 10.1267 26.6872 10.1267 26.8292C10.1251 27.0257 10.1251 27.2222 10.1267 27.4204C10.1251 27.4765 10.1251 27.5343 10.1251 27.5937C10.1284 28.2048 10.2126 28.7565 10.6071 29.242C10.995 29.5904 11.3136 29.7555 11.8402 29.782C12.4377 29.6763 12.8586 29.4698 13.2135 28.9661C13.3439 28.6969 13.3918 28.4608 13.3934 28.1618C13.3934 28.1007 13.3934 28.0413 13.3934 27.9786C13.3934 27.9125 13.3934 27.8464 13.3934 27.7787C13.3951 27.7093 13.3951 27.6383 13.3951 27.5673C13.3967 27.3361 13.3967 27.1049 13.3967 26.8737C13.3984 26.7135 13.3984 26.5517 13.3984 26.3915C13.4 26.0546 13.4 25.7177 13.4 25.3808C13.4 24.9481 13.4033 24.5171 13.405 24.0861C13.4066 23.7541 13.4066 23.4205 13.4066 23.0886C13.4066 22.93 13.4083 22.7715 13.4083 22.6113C13.4099 22.39 13.4099 22.167 13.4099 21.9441C13.4099 21.878 13.4099 21.8136 13.4116 21.7459C13.4066 21.1729 13.2581 20.712 12.8421 20.2958C12.0927 19.8186 11.3912 19.8121 10.6847 20.3736Z" fill="white"/>
</g>
</svg>
