<svg width="56" height="40" viewBox="0 0 56 40" fill="none" xmlns="http://www.w3.org/2000/svg">
<mask id="mask0_702_292" style="mask-type:luminance" maskUnits="userSpaceOnUse" x="0" y="0" width="56" height="40">
<path d="M55.0241 0.0936279H0.552124V39.7291H55.0241V0.0936279Z" fill="white"/>
</mask>
<g mask="url(#mask0_702_292)">
<path d="M23.6978 2.22393C26.1969 4.17432 27.907 6.93566 28.3114 10.0999C28.5145 13.6638 27.6181 16.8114 25.3006 19.5859C24.5974 20.3538 23.8447 21.1268 22.9434 21.6652C22.8559 21.6652 22.7701 21.6652 22.681 21.6652C22.681 21.7511 22.681 21.8369 22.681 21.926C22.7883 21.9492 22.7883 21.9493 22.8989 21.974C26.5419 22.9154 29.6468 25.9359 31.5071 29.077C32.8028 31.3461 33.544 33.8713 33.681 36.4806C33.6909 36.6342 33.6909 36.6342 33.7008 36.7911C33.7289 37.483 33.653 38.0891 33.2882 38.6886C32.7847 39.2204 32.3605 39.5903 31.6128 39.6167C31.3916 39.6184 31.1704 39.6183 30.9492 39.6183C30.827 39.6183 30.7065 39.6184 30.5811 39.6201C30.1717 39.6217 29.7607 39.6217 29.3513 39.6217C29.0575 39.6233 28.7653 39.6233 28.4732 39.625C27.6743 39.6267 26.877 39.6283 26.0797 39.6299C25.5812 39.6299 25.0843 39.6316 24.5858 39.6316C23.2075 39.6332 21.8292 39.6365 20.4509 39.6365C20.0927 39.6365 19.7345 39.6366 19.3763 39.6382C19.2888 39.6382 19.1997 39.6382 19.1073 39.6382C17.6662 39.6382 16.2269 39.6415 14.7859 39.6465C13.3069 39.6498 11.8279 39.653 10.3489 39.653C9.51858 39.653 8.68829 39.6547 7.85801 39.658C7.07724 39.6613 6.29648 39.6613 5.51406 39.6597C5.2285 39.6597 4.94126 39.6614 4.65405 39.663C4.26284 39.6647 3.87163 39.6647 3.48042 39.663C3.36653 39.6647 3.25263 39.6646 3.13543 39.6662C2.42895 39.6596 2.03115 39.5424 1.46827 39.08C0.903742 38.4871 0.704008 37.9652 0.649536 37.1543C0.78324 32.4988 2.69141 28.3057 6.08188 25.0903C7.64011 23.675 9.62752 22.4529 11.6826 21.926C11.3442 21.5776 11.0009 21.277 10.6097 20.9913C8.13035 19.0822 6.64145 16.3738 6.10994 13.3219C5.73689 10.1742 6.3889 7.05617 8.36805 4.51124C12.2768 -0.116203 18.5725 -1.48034 23.6978 2.22393Z" fill="white"/>
<path d="M46.9854 1.81109C49.1742 3.57487 50.5063 6.03061 50.8331 8.80013C51.0741 11.7546 50.5641 14.4813 48.6889 16.8495C48.1805 17.4324 47.6226 17.946 47.0316 18.4464C46.7642 18.6578 46.7642 18.6578 46.6437 18.9369C46.8913 19.0096 46.8913 19.0096 47.1422 19.0823C48.4594 19.5232 49.5241 20.2565 50.5723 21.1466C50.6713 21.2259 50.772 21.3068 50.8744 21.3877C51.7013 22.0747 52.3187 22.8674 52.9295 23.7444C53.0005 23.8451 53.0714 23.9443 53.1457 24.0467C54.3408 25.8517 54.902 28.0218 54.9334 30.1538C54.9367 30.2661 54.9383 30.38 54.9416 30.4973C54.94 31.1248 54.9152 31.5559 54.4992 32.0612C53.8769 32.5071 53.3587 32.598 52.6026 32.598C52.4557 32.598 52.3105 32.598 52.1603 32.598C52.0001 32.598 51.84 32.5964 51.675 32.5964C51.4224 32.5964 51.4224 32.5964 51.1649 32.5964C50.7027 32.5964 50.2405 32.5963 49.7783 32.5947C49.2947 32.5947 48.8127 32.5947 48.329 32.593C47.4146 32.593 46.5001 32.593 45.5857 32.5913C44.5441 32.5897 43.5025 32.5881 42.4626 32.5881C40.32 32.5865 38.1791 32.5848 36.0365 32.5815C36.0118 32.5088 35.987 32.4362 35.9606 32.3602C35.8451 32.0233 35.7279 31.688 35.6123 31.3511C35.5727 31.2372 35.5331 31.1215 35.4918 31.0043C35.1138 29.9176 34.6269 28.9119 34.0722 27.9028C33.998 27.7624 33.922 27.6237 33.8444 27.4783C33.3839 26.6576 32.854 25.9458 32.2433 25.229C31.9478 24.8789 31.6969 24.5223 31.4543 24.1342C33.171 21.6916 35.1716 19.87 38.0008 18.8065C37.8902 18.7107 37.7796 18.615 37.6657 18.5159C35.5298 16.6348 34.0013 14.3128 33.7834 11.431C33.6381 8.34931 34.2621 5.39148 36.3353 2.99849C39.1381 0.0704219 43.6164 -0.720626 46.9854 1.81109Z" fill="white"/>
</g>
</svg>
