<svg width="45" height="40" viewBox="0 0 45 40" fill="none" xmlns="http://www.w3.org/2000/svg">
<mask id="mask0_702_267" style="mask-type:luminance" maskUnits="userSpaceOnUse" x="0" y="0" width="45" height="40">
<path d="M44.7716 0.0936279H0.203552V39.7291H44.7716V0.0936279Z" fill="white"/>
</mask>
<g mask="url(#mask0_702_267)">
<path d="M13.8112 14.0931C19.5375 14.0931 25.2636 14.0931 31.1635 14.0931C30.8553 15.3202 30.8553 15.3202 30.6975 15.814C30.644 15.9824 30.644 15.9824 30.5895 16.1542C30.5509 16.2747 30.5124 16.3953 30.4738 16.5158C30.4327 16.6446 30.3914 16.7735 30.3503 16.904C30.2625 17.1798 30.1744 17.4573 30.0862 17.7331C29.8472 18.4812 29.6095 19.2309 29.3718 19.979C29.3352 20.0947 29.3352 20.0946 29.2979 20.2119C28.8094 21.7511 28.3293 23.2919 27.8512 24.8327C27.0518 27.4106 26.2404 29.9837 25.4218 32.555C25.3089 32.9101 25.196 33.2652 25.0831 33.6203C25.0613 33.6896 25.0397 33.7573 25.0172 33.8267C24.7396 34.7003 24.4651 35.5756 24.1955 36.4509C24.1669 36.5434 24.1384 36.6358 24.1092 36.7316C23.9836 37.1395 23.8588 37.5475 23.7351 37.9554C23.6935 38.0925 23.6518 38.2295 23.61 38.3649C23.5757 38.4789 23.5413 38.5928 23.5059 38.7101C23.3825 39.0519 23.2625 39.3574 22.9611 39.5754C22.6064 39.6861 22.3253 39.6745 21.9735 39.5589C21.3773 39.0271 21.2192 37.9356 20.9932 37.199C20.9548 37.0735 20.9163 36.9496 20.8778 36.8258C20.7953 36.5582 20.7128 36.2924 20.6306 36.0248C20.4062 35.2965 20.1803 34.5682 19.9544 33.8399C19.931 33.7656 19.9076 33.6896 19.8833 33.612C19.3812 31.9936 18.8688 30.3767 18.3546 28.7632C17.5217 26.1456 16.6988 23.5264 15.8847 20.9022C15.8238 20.7073 15.7631 20.5108 15.7022 20.3143C15.6625 20.1871 15.6228 20.0583 15.583 19.9312C15.3076 19.0443 15.0303 18.1574 14.7512 17.2722C14.7182 17.1665 14.6852 17.0626 14.6513 16.9552C14.4998 16.4746 14.3481 15.994 14.1959 15.5134C14.1439 15.3499 14.0921 15.1848 14.0403 15.0197C14.0048 14.909 14.0048 14.909 13.9688 14.7967C13.8112 14.2963 13.8112 14.2963 13.8112 14.0931Z" fill="white"/>
<path d="M34.269 14.0931C37.7047 14.0931 41.1406 14.0931 44.6804 14.0931C44.5434 14.4333 44.4553 14.6299 44.2451 14.909C44.1946 14.9767 44.1441 15.0444 44.0921 15.1137C44.0104 15.2211 44.0104 15.2211 43.9269 15.3317C43.8103 15.487 43.6938 15.6423 43.5773 15.7991C43.5177 15.8784 43.4581 15.9577 43.3967 16.0386C43.1223 16.4036 42.8511 16.7718 42.5798 17.1385C42.4733 17.2821 42.3668 17.4259 42.2602 17.5712C42.2074 17.6422 42.1547 17.7132 42.1004 17.7859C32.6708 30.5254 32.6708 30.5254 32.5109 30.7401C32.4047 30.8837 32.2986 31.0274 32.1925 31.1711C31.9194 31.5394 31.6462 31.9093 31.3729 32.2775C31.3173 32.3519 31.2616 32.4278 31.2044 32.5054C31.0951 32.6524 30.9858 32.7994 30.8764 32.948C30.6491 33.2536 30.4224 33.5608 30.2003 33.8713C30.1359 33.9621 30.0715 34.0512 30.0052 34.1437C29.9254 34.256 29.9254 34.256 29.8442 34.3716C29.6702 34.588 29.5162 34.7135 29.2381 34.763C28.8561 34.7746 28.6574 34.7614 28.3269 34.5534C28.0894 34.1785 28.0978 33.8829 28.15 33.4568C28.266 32.9778 28.4172 32.5104 28.5692 32.0414C28.6143 31.8993 28.6592 31.7573 28.7039 31.6153C28.8005 31.3114 28.8976 31.0059 28.9953 30.7021C29.1511 30.2165 29.3053 29.7326 29.4593 29.2454C29.6475 28.6525 29.8361 28.0597 30.0251 27.4668C30.3668 26.395 30.7054 25.3215 31.0419 24.2481C31.0664 24.1704 31.0908 24.0912 31.1161 24.0119C31.2139 23.6981 31.3117 23.386 31.4095 23.0739C31.6698 22.2432 31.9307 21.4125 32.1916 20.5818C32.2591 20.3671 32.3266 20.1524 32.3943 19.9377C32.4381 19.7973 32.4818 19.6587 32.5257 19.5183C32.6499 19.1236 32.7738 18.7289 32.8979 18.3325C33.0947 17.7066 33.2916 17.079 33.4887 16.4531C33.5516 16.2533 33.6143 16.0535 33.6772 15.8537C33.7611 15.5861 33.8453 15.3186 33.9294 15.051C33.9658 14.9354 33.9658 14.9354 34.0027 14.8165C34.1673 14.2963 34.1673 14.2963 34.269 14.0931Z" fill="white"/>
<path d="M0.294678 14.0931C3.73054 14.0931 7.16624 14.0931 10.7061 14.0931C11.7531 17.2194 11.7531 17.2194 12.0742 18.2648C12.1121 18.3886 12.1501 18.5109 12.1882 18.6331C12.268 18.8907 12.3475 19.1483 12.4269 19.4059C12.6431 20.1061 12.8607 20.8064 13.0781 21.5066C13.1118 21.6156 13.1118 21.6156 13.1461 21.7263C13.625 23.2688 14.1121 24.808 14.6005 26.3488C14.7347 26.7716 14.8687 27.1944 15.0024 27.6171C15.0459 27.7542 15.0891 27.8896 15.1324 28.0267C15.1954 28.2265 15.2586 28.4263 15.3217 28.6261C15.5529 29.3561 15.785 30.0861 16.0184 30.8161C16.1257 31.153 16.232 31.4882 16.338 31.8251C16.3839 31.9704 16.4303 32.1157 16.4772 32.2594C16.9019 33.574 16.9019 33.574 16.8251 34.2743C16.6482 34.5534 16.6482 34.5533 16.3684 34.7283C16.0802 34.7911 15.8309 34.8109 15.5465 34.7283C15.1266 34.3782 14.8214 33.9307 14.502 33.4897C14.3879 33.3345 14.2738 33.1793 14.1598 33.0241C14.073 32.9051 14.073 32.9051 13.9843 32.7846C13.7151 32.4163 13.4434 32.0497 13.172 31.683C13.0654 31.5394 12.9588 31.3957 12.8523 31.252C12.7996 31.181 12.7468 31.11 12.6925 31.0357C9.5493 26.7898 6.4061 22.5438 3.2629 18.2978C3.18367 18.1905 3.18367 18.1905 3.10295 18.0815C2.99682 17.9378 2.89068 17.7958 2.78454 17.6521C2.45524 17.2062 2.12592 16.7619 1.79629 16.3177C1.63535 16.0997 1.47441 15.8817 1.31363 15.6654C1.13734 15.4259 0.960557 15.188 0.78278 14.9502C0.715928 14.861 0.649078 14.7703 0.58008 14.6778C0.523792 14.6035 0.467501 14.5274 0.409563 14.4515C0.294676 14.2748 0.294678 14.2748 0.294678 14.0931Z" fill="white"/>
<path d="M21.1192 0.243858C21.2431 0.242207 21.2431 0.242183 21.3697 0.240532C21.4561 0.23888 21.5426 0.235569 21.6315 0.232266C21.8141 0.228963 21.9967 0.227327 22.1794 0.227327C22.4572 0.224024 22.7329 0.209129 23.0102 0.194266C24.2539 0.162887 24.2539 0.16293 24.6628 0.506438C24.9594 0.869763 25.1448 1.28099 25.3234 1.71037C25.448 2.00103 25.6049 2.26027 25.7674 2.52946C25.8805 2.72763 25.9934 2.92418 26.1063 3.12235C26.1687 3.23135 26.2311 3.34034 26.2935 3.44934C26.4223 3.67394 26.551 3.89858 26.6796 4.12318C26.9564 4.60541 27.2339 5.08932 27.5112 5.57155C27.632 5.78294 27.7529 5.99267 27.8737 6.20406C28.1556 6.69455 28.4379 7.18663 28.7202 7.67712C29.8179 9.58623 29.8178 9.58626 30.2959 10.4285C30.3464 10.516 30.3464 10.5161 30.3977 10.6069C30.6156 10.9917 30.6156 10.9917 30.6156 11.0941C25.251 11.0941 19.8864 11.0941 14.3592 11.0941C14.755 10.3047 15.1469 9.54502 15.5979 8.79195C16.0472 8.03392 16.4867 7.27251 16.9164 6.50292C17.3872 5.66067 17.8693 4.82505 18.3594 3.99436C18.7894 3.2644 19.2093 2.52946 19.6243 1.7896C19.6699 1.70868 19.7153 1.62784 19.7622 1.54526C19.8211 1.44122 19.8211 1.44114 19.881 1.33379C19.9274 1.25452 19.9738 1.17532 20.0216 1.09439C20.05 1.03164 20.0786 0.970471 20.108 0.907715C20.3625 0.413923 20.5639 0.280191 21.1192 0.243858Z" fill="white"/>
<path d="M27.9676 0.366093C28.9591 0.357836 29.9509 0.351252 30.9424 0.347949C31.4031 0.346298 31.8637 0.342987 32.3242 0.339684C32.7695 0.33473 33.2147 0.33307 33.6601 0.331419C33.8291 0.331419 33.9981 0.329845 34.1672 0.328193C35.5795 0.311678 36.7567 0.412414 37.8163 1.43798C38.3343 1.98462 38.7527 2.6055 39.1819 3.2215C39.4722 3.63768 39.7695 4.04732 40.0685 4.45689C40.4988 5.04812 40.9235 5.64261 41.3453 6.2388C41.7261 6.77718 42.113 7.31058 42.5009 7.84401C42.8909 8.38074 43.2755 8.92074 43.6582 9.46243C43.9832 9.92319 44.3143 10.3773 44.6505 10.8299C44.7719 11.0033 44.7719 11.0033 44.7719 11.0941C43.3891 11.1453 42.0063 11.1833 40.6228 11.2064C39.9801 11.218 39.3382 11.2329 38.6959 11.2576C38.0753 11.2824 37.4553 11.294 36.8341 11.3006C36.5981 11.3039 36.3621 11.3121 36.1262 11.3237C34.6236 11.3963 34.6236 11.3964 33.9952 11.0941C33.4367 10.5591 33.1231 9.86544 32.8255 9.16356C32.6911 8.85308 32.5309 8.56901 32.357 8.27835C32.2636 8.1099 32.1704 7.94311 32.0773 7.77466C31.6088 6.93736 31.1278 6.10669 30.6397 5.2793C30.1952 4.52292 29.7647 3.75995 29.3375 2.99531C28.9795 2.35454 28.612 1.72198 28.2272 1.09607C27.9676 0.668341 27.9676 0.668314 27.9676 0.366093Z" fill="white"/>
<path d="M10.0407 0.346229C10.1544 0.346229 10.1544 0.346229 10.2705 0.346229C10.5184 0.346229 10.7665 0.347842 11.0146 0.347842C11.1876 0.349493 11.3606 0.349555 11.5336 0.349555C11.987 0.349555 12.4404 0.351192 12.8939 0.354494C13.3572 0.356146 13.8207 0.356069 14.2842 0.35772C15.1921 0.359372 16.1 0.362683 17.008 0.365985C16.9446 0.712796 16.8561 0.958915 16.6729 1.26279C16.6222 1.34701 16.5714 1.4329 16.5191 1.52043C16.4638 1.61291 16.4085 1.70369 16.3515 1.79782C16.234 1.996 16.1166 2.19254 15.9994 2.39072C15.9392 2.49146 15.8789 2.59391 15.817 2.69795C15.5373 3.17358 15.2679 3.65579 14.9988 4.13967C14.53 4.97697 14.0495 5.80764 13.5614 6.63503C13.118 7.3881 12.6882 8.14948 12.2641 8.91246C12.1681 9.08587 12.0694 9.25597 11.968 9.42442C11.8452 9.65067 11.7602 9.83887 11.6773 10.0767C11.5172 10.4829 11.3385 10.8282 10.9803 11.094C10.211 11.35 9.34082 11.251 8.54272 11.2262C8.30222 11.2245 8.06171 11.2211 7.82138 11.2211C7.25454 11.2162 6.68803 11.2046 6.12136 11.1914C5.47578 11.1765 4.8302 11.1684 4.18462 11.1618C2.85749 11.1469 1.53052 11.1238 0.203552 11.094C0.304573 10.9338 0.405759 10.7752 0.506944 10.615C0.563232 10.5275 0.619681 10.4384 0.677619 10.3459C0.889069 10.0222 1.11884 9.71674 1.3567 9.41121C1.7664 8.87779 2.15463 8.33275 2.53247 7.77455C2.94167 7.17176 3.36623 6.58548 3.80927 6.00746C4.16036 5.5467 4.49017 5.07269 4.81568 4.59377C5.31451 3.85886 5.83645 3.14545 6.37787 2.44192C6.46832 2.32302 6.55763 2.20414 6.64627 2.08359C7.51914 0.904432 8.55824 0.331366 10.0407 0.346229Z" fill="white"/>
</g>
</svg>
